<?xml version="1.0" encoding="utf-8"?>
<!-- Generator: Adobe Illustrator 15.0.0, SVG Export Plug-In . SVG Version: 6.00 Build 0)  -->
<!DOCTYPE svg PUBLIC "-//W3C//DTD SVG 1.1//EN" "http://www.w3.org/Graphics/SVG/1.1/DTD/svg11.dtd">
<svg version="1.1" id="Warstwa_1" xmlns="http://www.w3.org/2000/svg" xmlns:xlink="http://www.w3.org/1999/xlink" x="0px" y="0px"
	 width="60px" height="60px" viewBox="50 50 60 60" enable-background="new 50 50 60 60" xml:space="preserve">
<path id="banana" fill="#F9CC16" stroke="#000000" stroke-width="0.5" stroke-miterlimit="10" d="M94.37,58.771l-4.163-4.163
	c-0.659-0.66-1.73-0.66-2.39,0c-0.659,0.661-0.659,1.73,0,2.391l3.729,3.729v1.412c0,3.135-0.603,6.183-1.795,9.056
	c-1.193,2.877-2.919,5.458-5.133,7.671c-2.212,2.213-4.794,3.942-7.673,5.136c-2.871,1.189-5.917,1.793-9.054,1.793
	c-3.136,0-6.181-0.605-9.056-1.795c-0.662-0.275-1.421-0.101-1.9,0.429c-0.479,0.532-0.572,1.306-0.234,1.936l2.597,4.804
	c0.078,0.146,0.177,0.276,0.292,0.393c1.078,1.078,2.26,2.018,3.526,2.826l1.132,2.265c0.012,0.025,0.024,0.05,0.036,0.072
	l2.095,4.19c0.081,0.163,0.188,0.31,0.316,0.438c3.131,3.131,6.375,4.721,9.643,4.721c3.585,0,7.068-0.691,10.349-2.055
	c3.292-1.363,6.242-3.339,8.769-5.866c2.529-2.529,4.501-5.478,5.86-8.765c1.363-3.284,2.058-6.769,2.058-10.351
	c0-3.578-0.69-7.059-2.053-10.35C99.973,65.435,95.801,59.975,94.37,58.771z M92.707,79.636c-1.645,3.916-3.145,6.125-6.318,9.449
	c-2.32,2.325-4.967,3.551-8.805,5.249c-3.688,1.458-0.542,0.333-4.458,1.583c-2.271,0.521-4.124,0.599-4.729,0.563
	c-1.102-0.065-2.229,0.083-5.279-2.092l1.028,0.693c1.119,0.777,2.833,1.545,4.563,1.405c2.333-0.048,1.25-0.063,2.721-0.243
	c0.879-0.108,1.671-0.318,2.368-0.539c2.149-0.711,2.843-1.007,4.748-1.798c3.511-1.688,5.017-2.114,7.843-4.821
	C89.117,86.359,91.242,83.18,92.707,79.636c1.473-3.542,2.219-7.297,2.219-11.16V64.65c0,1.193,0,1.735,0,3.826
	C95.063,71.302,93.976,76.616,92.707,79.636z"/>
</svg>
