<?xml version="1.0" encoding="utf-8"?>
<!-- Generator: Adobe Illustrator 15.0.0, SVG Export Plug-In . SVG Version: 6.00 Build 0)  -->
<!DOCTYPE svg PUBLIC "-//W3C//DTD SVG 1.1//EN" "http://www.w3.org/Graphics/SVG/1.1/DTD/svg11.dtd">
<svg version="1.1" id="Warstwa_1" xmlns="http://www.w3.org/2000/svg" xmlns:xlink="http://www.w3.org/1999/xlink" x="0px" y="0px"
	 width="60px" height="60px" viewBox="50 50 60 60" enable-background="new 50 50 60 60" xml:space="preserve">
<path id="coconut" fill="#D3D3D3" stroke="#000000" stroke-width="0.5" stroke-miterlimit="10" d="M87.473,61.696
	c-8.606,0-15.91,5.996-17.812,14.119l-8.08-8.077c-0.583-0.584-1.53-0.584-2.113,0c-3.382,3.382-5.245,7.879-5.245,12.662
	s1.863,9.279,5.245,12.662c3.383,3.381,7.88,5.242,12.663,5.244c0.001,0,0.001,0,0.002,0c2.688,0,5.285-0.59,7.646-1.705
	c2.42,1.127,5.004,1.705,7.694,1.705c10.095,0,18.305-8.211,18.305-18.304C105.777,69.906,97.567,61.696,87.473,61.696z
	 M90.661,73.075c0.351,0.351,0.547,0.829,0.547,1.322c0,0.493-0.196,0.972-0.547,1.322c-0.348,0.347-0.826,0.545-1.319,0.545
	c-0.492,0-0.976-0.198-1.323-0.545c-0.346-0.347-0.546-0.829-0.546-1.322c0-0.493,0.2-0.975,0.546-1.322
	c0.348-0.348,0.831-0.546,1.323-0.546C89.835,72.529,90.313,72.727,90.661,73.075z M90.661,80.545
	c0.351,0.352,0.547,0.828,0.547,1.322c0,0.492-0.196,0.971-0.547,1.322c-0.348,0.35-0.826,0.547-1.319,0.547
	c-0.492,0-0.976-0.197-1.323-0.547c-0.346-0.346-0.546-0.83-0.546-1.322c0-0.494,0.2-0.975,0.546-1.322
	C88.366,80.198,88.85,80,89.342,80C89.835,80,90.313,80.198,90.661,80.545z M98.135,76.809c0.348,0.348,0.546,0.829,0.546,1.324
	c0,0.492-0.198,0.971-0.546,1.317C97.785,79.8,97.306,80,96.812,80c-0.491,0-0.975-0.198-1.32-0.55
	c-0.348-0.347-0.546-0.825-0.546-1.317c0-0.495,0.198-0.976,0.546-1.324c0.35-0.347,0.829-0.545,1.32-0.545
	C97.306,76.264,97.783,76.462,98.135,76.809z"/>
<polyline fill="#D3D3D3" stroke="#000000" stroke-width="0.5" stroke-miterlimit="10" points="69.661,75.814 84.793,90.945 
	85.098,91.388 85.213,91.759 85.222,92.117 85.12,92.563 84.921,92.914 84.332,93.499 82.98,94.645 79.778,96.6 "/>
</svg>
