<?xml version="1.0" encoding="utf-8"?>
<!-- Generator: Adobe Illustrator 15.0.0, SVG Export Plug-In . SVG Version: 6.00 Build 0)  -->
<!DOCTYPE svg PUBLIC "-//W3C//DTD SVG 1.1//EN" "http://www.w3.org/Graphics/SVG/1.1/DTD/svg11.dtd">
<svg version="1.1" id="Warstwa_1" xmlns="http://www.w3.org/2000/svg" xmlns:xlink="http://www.w3.org/1999/xlink" x="0px" y="0px"
	 width="60px" height="60px" viewBox="50 50 60 60" enable-background="new 50 50 60 60" xml:space="preserve">
<path id="grape" fill="#E50CE6" stroke="#000000" stroke-width="0.5" stroke-miterlimit="10" d="M60.415,81.997
	c0,3.647,2.586,6.701,6.021,7.428c-0.015,0.188-0.025,0.377-0.025,0.565c0,3.648,2.586,6.701,6.021,7.429
	c-0.015,0.188-0.025,0.377-0.025,0.565c0,4.188,3.406,7.595,7.594,7.595c4.188,0,7.594-3.407,7.594-7.595
	c0-0.188-0.01-0.377-0.024-0.565c3.435-0.728,6.021-3.78,6.021-7.429c0-0.188-0.01-0.377-0.025-0.565
	c3.434-0.727,6.021-3.78,6.021-7.428c0-3.649-2.588-6.704-6.024-7.429c0.014-0.188,0.029-0.375,0.029-0.566
	c0-4.187-3.407-7.594-7.594-7.594c-1.641,0-3.156,0.527-4.397,1.414v-5.811c0-0.584,0.111-1.15,0.333-1.683
	c0.223-0.535,0.543-1.015,0.955-1.426s0.891-0.733,1.426-0.955c1.066-0.441,2.301-0.442,3.365,0
	c0.535,0.222,1.016,0.543,1.426,0.955c0.329,0.328,0.602,0.701,0.809,1.109c-0.207,0.409-0.479,0.782-0.809,1.112
	c-0.41,0.412-0.891,0.732-1.426,0.954c-0.814,0.338-1.203,1.273-0.864,2.089c0.338,0.816,1.274,1.203,2.089,0.865
	c0.926-0.383,1.755-0.938,2.463-1.647c0.711-0.71,1.266-1.54,1.647-2.464c0.079-0.193,0.121-0.399,0.121-0.608l0.001-0.593
	c0-0.211-0.041-0.42-0.122-0.616c-0.384-0.925-0.938-1.753-1.647-2.463c-0.708-0.708-1.537-1.262-2.463-1.647
	c-1.847-0.765-3.967-0.766-5.814,0c-0.925,0.384-1.754,0.938-2.463,1.647c-0.709,0.71-1.264,1.539-1.646,2.463
	c-0.383,0.922-0.578,1.9-0.578,2.907v5.811c-1.242-0.887-2.757-1.414-4.396-1.414c-4.188,0-7.594,3.407-7.594,7.594
	c0,0.191,0.015,0.378,0.029,0.566C63.002,75.293,60.415,78.348,60.415,81.997z M69.648,89.408c0.607-0.135,1.184-0.344,1.726-0.614
	c0.053-0.026,0.107-0.049,0.159-0.075c0.12-0.063,0.234-0.133,0.35-0.201c0.089-0.054,0.178-0.105,0.265-0.16
	c0.096-0.063,0.188-0.13,0.281-0.197c0.1-0.071,0.199-0.143,0.295-0.221c0.082-0.064,0.16-0.131,0.239-0.199
	c0.1-0.084,0.196-0.174,0.292-0.264c0.073-0.07,0.145-0.142,0.215-0.214c0.089-0.091,0.175-0.188,0.259-0.285
	c0.071-0.081,0.142-0.161,0.209-0.247c0.021-0.026,0.045-0.051,0.066-0.078c0.021,0.027,0.045,0.052,0.066,0.078
	c0.068,0.086,0.139,0.166,0.209,0.247c0.084,0.097,0.17,0.192,0.259,0.285c0.071,0.073,0.143,0.144,0.216,0.214
	c0.094,0.091,0.192,0.18,0.291,0.264c0.078,0.068,0.158,0.135,0.239,0.199c0.097,0.076,0.195,0.149,0.296,0.221
	c0.092,0.067,0.185,0.134,0.28,0.197c0.086,0.055,0.176,0.107,0.265,0.16c0.116,0.068,0.23,0.139,0.35,0.201
	c0.052,0.026,0.105,0.049,0.158,0.075c0.542,0.271,1.12,0.479,1.726,0.614 M75.644,81.414c0.607-0.135,1.184-0.344,1.727-0.613
	c0.053-0.027,0.106-0.05,0.159-0.076c0.119-0.064,0.234-0.133,0.35-0.203c0.089-0.052,0.178-0.104,0.264-0.16
	c0.097-0.063,0.188-0.129,0.281-0.196c0.1-0.071,0.199-0.144,0.295-0.221c0.082-0.065,0.16-0.131,0.239-0.199
	c0.099-0.085,0.196-0.174,0.292-0.265c0.073-0.07,0.145-0.141,0.215-0.214c0.089-0.092,0.175-0.188,0.259-0.285
	c0.071-0.082,0.142-0.162,0.209-0.247c0.021-0.027,0.045-0.052,0.067-0.079c0.021,0.027,0.045,0.051,0.066,0.079
	c0.068,0.084,0.138,0.165,0.209,0.247c0.084,0.098,0.17,0.193,0.258,0.285c0.072,0.073,0.143,0.144,0.217,0.214
	c0.094,0.091,0.191,0.179,0.29,0.265c0.078,0.068,0.158,0.134,0.239,0.199c0.096,0.076,0.195,0.149,0.295,0.221
	c0.092,0.067,0.186,0.133,0.28,0.196c0.087,0.056,0.176,0.108,0.265,0.16c0.115,0.07,0.23,0.139,0.352,0.203
	c0.051,0.026,0.104,0.049,0.158,0.076c0.542,0.27,1.119,0.479,1.726,0.613 M75.644,97.402c0.607-0.135,1.184-0.344,1.727-0.615
	c0.053-0.025,0.106-0.049,0.159-0.075c0.119-0.062,0.234-0.132,0.35-0.201c0.089-0.053,0.178-0.104,0.264-0.16
	c0.097-0.063,0.188-0.129,0.281-0.195c0.1-0.071,0.199-0.144,0.295-0.222c0.082-0.064,0.16-0.131,0.239-0.199
	c0.099-0.085,0.196-0.174,0.292-0.264c0.073-0.07,0.145-0.143,0.215-0.214c0.089-0.092,0.175-0.188,0.259-0.285
	c0.071-0.081,0.142-0.161,0.209-0.247c0.021-0.026,0.045-0.051,0.067-0.078c0.021,0.027,0.045,0.052,0.066,0.078
	c0.068,0.086,0.138,0.166,0.209,0.247c0.084,0.098,0.17,0.192,0.258,0.285c0.072,0.073,0.143,0.144,0.217,0.214
	c0.094,0.092,0.191,0.179,0.29,0.264c0.078,0.068,0.158,0.135,0.239,0.199c0.096,0.076,0.195,0.15,0.295,0.222
	c0.092,0.066,0.186,0.133,0.28,0.195c0.087,0.056,0.176,0.108,0.265,0.16c0.115,0.069,0.23,0.14,0.352,0.201
	c0.051,0.026,0.104,0.05,0.158,0.075c0.542,0.271,1.119,0.48,1.726,0.615 M81.639,89.408c0.607-0.135,1.184-0.344,1.727-0.614
	c0.053-0.026,0.107-0.049,0.158-0.075c0.121-0.063,0.235-0.133,0.352-0.201c0.088-0.054,0.178-0.105,0.264-0.16
	c0.096-0.063,0.189-0.13,0.281-0.197c0.1-0.071,0.198-0.143,0.295-0.221c0.081-0.064,0.16-0.131,0.238-0.199
	c0.1-0.084,0.196-0.174,0.292-0.264c0.073-0.07,0.144-0.142,0.215-0.214c0.089-0.091,0.175-0.188,0.259-0.285
	c0.071-0.081,0.142-0.161,0.209-0.247c0.021-0.026,0.045-0.051,0.066-0.078c0.021,0.027,0.045,0.052,0.066,0.078
	c0.068,0.086,0.139,0.166,0.209,0.247c0.085,0.097,0.17,0.192,0.26,0.285c0.07,0.073,0.143,0.144,0.215,0.214
	c0.096,0.091,0.191,0.18,0.291,0.264c0.078,0.068,0.158,0.135,0.239,0.199c0.097,0.076,0.196,0.149,0.296,0.221
	c0.092,0.067,0.186,0.134,0.279,0.197c0.087,0.055,0.176,0.107,0.265,0.16c0.116,0.068,0.23,0.139,0.351,0.201
	c0.053,0.026,0.105,0.049,0.158,0.075c0.543,0.271,1.121,0.479,1.727,0.614 M87.635,81.414c0.264-0.059,0.521-0.132,0.775-0.217
	c0.016-0.006,0.031-0.012,0.048-0.018c0.226-0.078,0.446-0.165,0.662-0.264c0.054-0.023,0.104-0.049,0.155-0.074
	c0.176-0.084,0.35-0.175,0.518-0.271c0.072-0.042,0.142-0.086,0.213-0.13c0.143-0.089,0.283-0.183,0.419-0.28
	c0.08-0.059,0.159-0.117,0.238-0.179c0.122-0.096,0.241-0.195,0.356-0.297c0.079-0.069,0.157-0.139,0.232-0.212
	c0.114-0.109,0.223-0.224,0.329-0.34c0.065-0.072,0.134-0.141,0.195-0.216c0.124-0.145,0.239-0.297,0.352-0.451
	c0.038-0.051,0.077-0.099,0.112-0.15c0.148-0.214,0.287-0.435,0.414-0.665 M67.347,77.65c0.125,0.229,0.265,0.45,0.414,0.665
	c0.035,0.051,0.075,0.099,0.112,0.15c0.112,0.154,0.228,0.306,0.351,0.451c0.063,0.074,0.131,0.144,0.196,0.216
	c0.106,0.116,0.214,0.23,0.329,0.34c0.075,0.073,0.154,0.143,0.233,0.212c0.116,0.103,0.233,0.202,0.355,0.297
	c0.078,0.062,0.158,0.12,0.238,0.178c0.137,0.098,0.276,0.191,0.419,0.281c0.07,0.043,0.141,0.089,0.213,0.13
	c0.168,0.097,0.341,0.188,0.518,0.271c0.052,0.025,0.102,0.051,0.154,0.075c0.216,0.099,0.438,0.185,0.663,0.263
	c0.017,0.006,0.033,0.012,0.049,0.018c0.252,0.086,0.511,0.159,0.774,0.217"/>
<polyline fill="#E50CE6" stroke="#000000" stroke-width="0.5" stroke-miterlimit="10" points="72.365,81.414 73.375,81.625 
	74.458,81.625 75.644,81.414 76.792,81.059 77.634,80.665 78.319,80.241 79.16,79.564 80,78.657 80.533,79.268 81.574,80.166 
	82.629,80.801 84.354,81.414 85.5,81.625 86.459,81.625 87.635,81.414 "/>
<path fill="#E50CE6" stroke="#000000" stroke-width="0.5" stroke-miterlimit="10" d="M92.654,77.65c0,0,0.319-0.801,0.43-1.066
	c0.09-0.216,0.276-0.648,0.333-0.875c0.069-0.279,0.144-1.14,0.144-1.14"/>
<path fill="#E50CE6" stroke="#000000" stroke-width="0.5" stroke-miterlimit="10" d="M67.347,77.65l-0.513-0.984l-0.292-0.917
	c0,0-0.114-1.004-0.114-1.34"/>
<polyline fill="#E50CE6" stroke="#000000" stroke-width="0.5" stroke-miterlimit="10" points="93.564,89.425 92.654,89.625 
	91.417,89.625 90.35,89.408 89.091,89.007 88.114,88.518 87.035,87.74 86.461,87.19 85.994,86.652 85.545,87.171 84.953,87.74 
	84.42,88.16 83.731,88.603 83.021,88.954 82.192,89.263 81.452,89.443 "/>
<polyline fill="#E50CE6" stroke="#000000" stroke-width="0.5" stroke-miterlimit="10" points="66.435,89.425 67.347,89.625 
	68.375,89.625 69.648,89.408 70.548,89.146 71.751,88.595 72.962,87.74 74.004,86.652 74.754,87.477 75.86,88.357 76.633,88.794 
	77.286,89.081 78.359,89.408 79.333,89.625 80.5,89.625 81.639,89.408 "/>
<polyline fill="#E50CE6" stroke="#000000" stroke-width="0.5" stroke-miterlimit="10" points="72.431,97.419 73.469,97.594 
	74.313,97.594 75.644,97.402 76.798,97.043 77.779,96.569 78.797,95.869 79.464,95.257 80,94.646 80.533,95.257 81.04,95.734 
	81.574,96.155 82.405,96.678 83.277,97.073 83.934,97.295 84.354,97.402 85.406,97.498 86.406,97.498 87.569,97.419 "/>
</svg>
