<?xml version="1.0" encoding="utf-8"?>
<!-- Generator: Adobe Illustrator 15.0.0, SVG Export Plug-In . SVG Version: 6.00 Build 0)  -->
<!DOCTYPE svg PUBLIC "-//W3C//DTD SVG 1.1//EN" "http://www.w3.org/Graphics/SVG/1.1/DTD/svg11.dtd">
<svg version="1.1" id="Warstwa_1" xmlns="http://www.w3.org/2000/svg" xmlns:xlink="http://www.w3.org/1999/xlink" x="0px" y="0px"
	 width="60px" height="60px" viewBox="50 50 60 60" enable-background="new 50 50 60 60" xml:space="preserve">
<path id="tomato" fill="#F9862F" stroke="#000000" stroke-width="0.5" stroke-miterlimit="10" d="M65.542,100.283
	c1.923,1.697,4.163,3.02,6.657,3.934c2.479,0.906,5.104,1.365,7.801,1.365c2.7,0,5.326-0.459,7.802-1.365
	c2.494-0.912,4.733-2.236,6.657-3.934c1.938-1.711,3.454-3.711,4.504-5.945c1.057-2.246,1.592-4.633,1.592-7.09
	s-0.535-4.84-1.592-7.089c-1.051-2.234-2.566-4.235-4.505-5.946c-0.778-0.688-2.483-2.003-4.837-2.759
	c0.365-0.401,0.531-0.972,0.39-1.538c-0.224-0.899-1.136-1.447-2.037-1.222l-6.197,1.55c0.208-2.071,0.714-4.088,1.513-6.017
	c1.079-2.604,2.644-4.94,4.646-6.942c0.656-0.656,0.656-1.719,0-2.375c-0.654-0.656-1.717-0.656-2.373-0.001
	c-2.317,2.316-4.125,5.019-5.375,8.032c-0.838,2.021-1.392,4.125-1.67,6.281l-5.918-4.44c-0.741-0.556-1.793-0.406-2.351,0.335
	c-0.556,0.742-0.406,1.794,0.336,2.351l4.653,3.49c-0.424-0.049-0.85-0.078-1.278-0.078c-4.188,0-7.281,2.33-8.416,3.332
	c-1.939,1.709-3.456,3.71-4.506,5.946c-1.057,2.248-1.592,4.632-1.592,7.089c0.001,2.459,0.536,4.844,1.591,7.09
	C62.089,96.574,63.605,98.576,65.542,100.283z"/>
</svg>
