<?xml version="1.0" encoding="utf-8"?>
<!-- Generator: Adobe Illustrator 15.0.0, SVG Export Plug-In . SVG Version: 6.00 Build 0)  -->
<!DOCTYPE svg PUBLIC "-//W3C//DTD SVG 1.1//EN" "http://www.w3.org/Graphics/SVG/1.1/DTD/svg11.dtd">
<svg version="1.1" id="Warstwa_1" xmlns="http://www.w3.org/2000/svg" xmlns:xlink="http://www.w3.org/1999/xlink" x="0px" y="0px"
	 width="60px" height="60px" viewBox="50 50 60 60" enable-background="new 50 50 60 60" xml:space="preserve">
<path id="pear" fill="#FFEB54" stroke="#000000" stroke-width="0.5" stroke-miterlimit="10" d="M72.905,72.531
	c0,5.17-1.556,6.726-3.203,8.371c-1.362,1.361-2.425,2.951-3.16,4.725c-0.733,1.77-1.105,3.645-1.105,5.574
	c0.001,1.932,0.373,3.807,1.105,5.576c0.737,1.773,1.799,3.359,3.159,4.723c1.363,1.361,2.953,2.424,4.725,3.158
	c1.769,0.734,3.646,1.105,5.574,1.105c1.929,0,3.805-0.371,5.575-1.105c1.772-0.734,3.363-1.797,4.725-3.16
	c1.36-1.361,2.424-2.947,3.16-4.723c0.731-1.768,1.104-3.643,1.104-5.574c0-1.93-0.371-3.805-1.105-5.576s-1.798-3.361-3.16-4.723
	c-1.646-1.645-3.201-3.201-3.201-8.371c0-3.435-2.453-6.304-5.697-6.956c0.059-0.16,0.096-0.332,0.096-0.513v-3.735
	c0-0.545,0.104-1.074,0.311-1.572c0.207-0.5,0.507-0.948,0.893-1.333c0.385-0.384,0.833-0.684,1.332-0.892
	c0.996-0.413,2.148-0.413,3.144,0c0.5,0.208,0.948,0.508,1.333,0.892c0.307,0.307,0.561,0.655,0.755,1.038
	c-0.194,0.381-0.448,0.729-0.756,1.038c-0.384,0.385-0.833,0.685-1.332,0.891c-0.497,0.208-1.025,0.312-1.571,0.312
	c-0.825,0-1.494,0.669-1.494,1.494s0.669,1.494,1.494,1.494c0.941,0,1.854-0.182,2.716-0.54c0.863-0.357,1.638-0.876,2.3-1.539
	c0.664-0.663,1.182-1.437,1.539-2.301c0.074-0.18,0.113-0.374,0.113-0.569l0.002-0.553c0-0.198-0.039-0.394-0.113-0.576
	c-0.359-0.864-0.878-1.638-1.541-2.3c-0.661-0.662-1.436-1.18-2.3-1.539c-1.726-0.715-3.706-0.715-5.435,0
	c-0.862,0.358-1.637,0.876-2.299,1.539c-0.663,0.663-1.181,1.438-1.539,2.3c-0.357,0.862-0.539,1.776-0.539,2.716v3.735
	c0,0.181,0.037,0.353,0.096,0.513C75.358,66.227,72.905,69.097,72.905,72.531z"/>
</svg>
